<?xml version="1.0" encoding="UTF-8"?>
<svg id="Layer_1" data-name="Layer 1" xmlns="http://www.w3.org/2000/svg" viewBox="0 0 195.57 96.74">
  <defs>
    <style>
      .cls-1 {
        fill: #fff;
      }

      .cls-2 {
        fill: #141414;
      }

      .cls-3 {
        fill: red;
      }

      .cls-4 {
        fill: navy;
      }
    </style>
  </defs>
  <g>
    <g>
      <g id="A">
        <path class="cls-2" d="m23.69,0c13.08,0,23.68,10.61,23.67,23.69,0,13.08-10.61,23.68-23.69,23.67C10.6,47.35,0,36.75,0,23.68,0,10.6,10.61,0,23.69,0Z"/>
      </g>
      <path class="cls-4" d="m32.45,38.83l-2.78-7.66h-12.13l-2.64,7.66h-5.48l11.46-30.3h5.59l11.53,30.3h-5.55Zm-8.79-25.75h-.13c-.08.74-.23,1.46-.45,2.17l-4.14,11.68h9.3l-4.17-11.68c-.21-.71-.34-1.44-.41-2.17Z"/>
    </g>
    <g>
      <g id="B">
        <path class="cls-2" d="m73.08,0c13.08,0,23.69,10.61,23.69,23.69s-10.61,23.69-23.69,23.69-23.69-10.61-23.69-23.69c0-13.08,10.61-23.68,23.69-23.69Z"/>
      </g>
      <path class="cls-4" d="m83.29,30c.07,2.47-1.01,4.83-2.93,6.39-2.15,1.69-4.83,2.55-7.56,2.43h-9.91V8.53h9.57c2.43-.12,4.84.54,6.87,1.88,1.63,1.17,2.58,3.08,2.52,5.09.02,1.58-.51,3.12-1.5,4.35-1.02,1.28-2.42,2.22-4,2.67v.09c1.93.16,3.75,1.01,5.11,2.39,1.22,1.37,1.88,3.16,1.83,5Zm-6.77-13.53c.05-1.09-.45-2.14-1.33-2.79-1.2-.74-2.6-1.09-4-1h-3.26v8.39h3.23c1.43.1,2.86-.33,4-1.2.94-.87,1.44-2.12,1.36-3.4Zm1.48,13.4c.06-1.32-.52-2.59-1.55-3.41-1.39-.9-3.03-1.32-4.68-1.2h-3.84v9.41h4.24c1.52.09,3.03-.38,4.24-1.31,1.05-.85,1.64-2.14,1.59-3.49Z"/>
    </g>
    <g>
      <g id="Y">
        <path class="cls-2" d="m171.87,0c13.08,0,23.69,10.61,23.69,23.69s-10.61,23.69-23.69,23.69-23.69-10.61-23.69-23.69S158.79,0,171.87,0t0,0Z"/>
      </g>
      <path class="cls-4" d="m174.27,27.85v11h-5v-10.85l-9.85-19.47h5.72l6.1,12.65c.18.36.33.73.44,1.12.1.34.17.61.25.83h0c.15-.66.38-1.3.69-1.91l6.38-12.69h5.31l-10.04,19.32Z"/>
    </g>
    <g>
      <g id="X">
        <path class="cls-2" d="m122.47,0c13.08,0,23.69,10.6,23.7,23.68,0,13.08-10.6,23.69-23.68,23.7-13.08,0-23.69-10.6-23.7-23.68h0c0-13.09,10.6-23.69,23.68-23.7Z"/>
      </g>
      <path class="cls-4" d="m129.59,38.83l-6.41-11c-.12-.24-.22-.5-.3-.76-.05-.26-.13-.51-.22-.76h-.09c-.11.27-.19.52-.27.77-.09.26-.2.51-.33.75l-6.53,11h-6.12l10.14-15.19-9.26-15.11h6.19l5.4,10c.42.71.76,1.48,1,2.27h.08c.3-.79.53-1.31.65-1.56s2.21-3.8,6.27-10.66h5.68l-9.46,15,9.58,15.28-6-.03Z"/>
    </g>
  </g>
  <g>
    <g>
      <g id="A-2">
        <path class="cls-1" d="m23.69,49.38c13.08,0,23.68,10.61,23.67,23.69,0,13.08-10.61,23.68-23.69,23.67C10.6,96.73,0,86.13,0,73.06c0-13.08,10.6-23.68,23.68-23.68h.01Z"/>
      </g>
      <path class="cls-3" d="m32.45,88.21l-2.78-7.66h-12.13l-2.64,7.66h-5.48l11.46-30.31h5.59l11.53,30.31h-5.55Zm-8.79-25.75h-.13c-.08.74-.23,1.46-.45,2.17l-4.14,11.68h9.3l-4.17-11.68c-.2-.71-.34-1.44-.41-2.17Z"/>
    </g>
    <g>
      <g id="B-2">
        <path class="cls-1" d="m73.08,49.37c13.08,0,23.69,10.61,23.69,23.69s-10.61,23.69-23.69,23.69-23.69-10.61-23.69-23.69h0c0-13.08,10.61-23.68,23.69-23.69Z"/>
      </g>
      <path class="cls-3" d="m83.29,79.38c.07,2.47-1.01,4.83-2.93,6.39-2.15,1.69-4.83,2.56-7.56,2.44h-9.91v-30.31h9.57c2.43-.12,4.84.54,6.87,1.89,1.64,1.17,2.59,3.08,2.52,5.09.02,1.58-.51,3.11-1.5,4.34-1.02,1.29-2.42,2.22-4,2.67v.11c1.92.15,3.72,1,5.07,2.37,1.25,1.37,1.92,3.16,1.87,5.01Zm-6.77-13.54c.05-1.09-.45-2.14-1.33-2.79-1.2-.74-2.6-1.09-4-1h-3.26v8.38h3.23c1.43.1,2.86-.33,4-1.2.94-.87,1.44-2.11,1.36-3.39Zm1.48,13.41c.06-1.32-.51-2.59-1.55-3.41-1.38-.91-3.03-1.33-4.68-1.21h-3.84v9.42h4.24c1.52.09,3.03-.38,4.24-1.31,1.05-.85,1.64-2.14,1.59-3.49Z"/>
    </g>
    <g>
      <g id="Y-2">
        <path class="cls-1" d="m171.87,49.37c13.08,0,23.69,10.61,23.69,23.69s-10.61,23.69-23.69,23.69-23.69-10.61-23.69-23.69h0c0-13.08,10.61-23.68,23.69-23.69Z"/>
      </g>
      <path class="cls-3" d="m174.27,77.22v11h-5v-10.88l-9.85-19.43h5.72l6.1,12.64c.18.36.33.73.44,1.12.1.34.17.61.25.83h0c.15-.66.38-1.3.69-1.9l6.38-12.69h5.31l-10.04,19.31Z"/>
    </g>
    <g>
      <g id="X-2">
        <path class="cls-1" d="m122.47,49.37c13.08,0,23.69,10.6,23.7,23.68,0,13.08-10.6,23.69-23.68,23.7-13.08,0-23.69-10.6-23.7-23.68h0c0-13.09,10.6-23.69,23.68-23.7Z"/>
      </g>
      <path class="cls-3" d="m129.59,88.21l-6.41-11c-.12-.25-.22-.51-.3-.77-.06-.26-.13-.51-.22-.76h-.09c-.11.28-.19.52-.27.78-.09.26-.2.51-.33.75l-6.53,11h-6.12l10.14-15.21-9.26-15.1h6.18l5.41,10c.42.71.76,1.47,1,2.26h.08c.3-.79.53-1.31.65-1.56s2.21-3.79,6.27-10.66h5.68l-9.46,15,9.58,15.29-6-.02Z"/>
    </g>
  </g>
</svg>